<mxGraphModel dx="1056" dy="573" grid="1" gridSize="10" guides="1" tooltips="1" connect="1" arrows="1" fold="1" page="1" pageScale="1" pageWidth="1000" pageHeight="600" math="0" shadow="0">
  <root>
    <mxCell id="0" />
    <mxCell id="1" parent="0" />
    <mxCell id="26" value="Social Objects" style="shape=umlFrame;whiteSpace=wrap;html=1;" parent="1" vertex="1">
      <mxGeometry x="10" y="10" width="990" height="580" as="geometry" />
    </mxCell>
    <mxCell id="6" style="edgeStyle=none;html=1;entryX=0;entryY=0.5;entryDx=0;entryDy=0;endArrow=none;endFill=0;" parent="1" source="2" target="4" edge="1">
      <mxGeometry relative="1" as="geometry" />
    </mxCell>
    <mxCell id="7" value="seguidor" style="edgeLabel;html=1;align=center;verticalAlign=middle;resizable=0;points=[];" parent="6" vertex="1" connectable="0">
      <mxGeometry x="-0.7778" relative="1" as="geometry">
        <mxPoint x="10" y="-15" as="offset" />
      </mxGeometry>
    </mxCell>
    <mxCell id="8" style="edgeStyle=none;html=1;entryX=0;entryY=0.5;entryDx=0;entryDy=0;endArrow=none;endFill=0;" parent="1" source="2" target="5" edge="1">
      <mxGeometry relative="1" as="geometry" />
    </mxCell>
    <mxCell id="9" value="seguidor" style="edgeLabel;html=1;align=center;verticalAlign=middle;resizable=0;points=[];" parent="8" vertex="1" connectable="0">
      <mxGeometry x="-0.8667" relative="1" as="geometry">
        <mxPoint x="34" y="-4" as="offset" />
      </mxGeometry>
    </mxCell>
    <mxCell id="2" value="&lt;p style=&quot;margin: 0px ; margin-top: 4px ; text-align: center ; text-decoration: underline&quot;&gt;&lt;b&gt;u1 : Usuario&lt;/b&gt;&lt;/p&gt;&lt;hr&gt;&lt;p style=&quot;margin: 0px ; margin-left: 8px&quot;&gt;id = 1&lt;br&gt;mome = João Silva&lt;br&gt;email = joao@gmail.com&lt;/p&gt;&lt;p style=&quot;margin: 0px ; margin-left: 8px&quot;&gt;nascimento = 15/10/1991&lt;/p&gt;&lt;p style=&quot;margin: 0px ; margin-left: 8px&quot;&gt;website = null&lt;/p&gt;&lt;p style=&quot;margin: 0px ; margin-left: 8px&quot;&gt;genero = M&lt;/p&gt;&lt;p style=&quot;margin: 0px ; margin-left: 8px&quot;&gt;telefone = null&lt;/p&gt;&lt;p style=&quot;margin: 0px ; margin-left: 8px&quot;&gt;uriFoto = http://dominio.joao43.jpg&lt;/p&gt;" style="verticalAlign=top;align=left;overflow=fill;fontSize=12;fontFamily=Helvetica;html=1;" parent="1" vertex="1">
      <mxGeometry x="30" y="60" width="200" height="150" as="geometry" />
    </mxCell>
    <mxCell id="10" style="edgeStyle=none;html=1;endArrow=none;endFill=0;" parent="1" source="3" target="5" edge="1">
      <mxGeometry relative="1" as="geometry" />
    </mxCell>
    <mxCell id="11" value="seguidor" style="edgeLabel;html=1;align=center;verticalAlign=middle;resizable=0;points=[];" parent="10" vertex="1" connectable="0">
      <mxGeometry x="-0.775" y="-3" relative="1" as="geometry">
        <mxPoint x="12" y="-18" as="offset" />
      </mxGeometry>
    </mxCell>
    <mxCell id="3" value="&lt;p style=&quot;margin: 0px ; margin-top: 4px ; text-align: center ; text-decoration: underline&quot;&gt;&lt;b&gt;u2 : Usuario&lt;/b&gt;&lt;/p&gt;&lt;hr&gt;&lt;p style=&quot;margin: 0px ; margin-left: 8px&quot;&gt;id = 2&lt;br&gt;mome = Maria Alice&lt;br&gt;email = alice@gmail.com&lt;/p&gt;&lt;p style=&quot;margin: 0px ; margin-left: 8px&quot;&gt;nascimento = 15/04/1999&lt;/p&gt;&lt;p style=&quot;margin: 0px ; margin-left: 8px&quot;&gt;website = null&lt;/p&gt;&lt;p style=&quot;margin: 0px ; margin-left: 8px&quot;&gt;genero = F&lt;/p&gt;&lt;p style=&quot;margin: 0px ; margin-left: 8px&quot;&gt;telefone = null&lt;/p&gt;&lt;p style=&quot;margin: 0px ; margin-left: 8px&quot;&gt;uriFoto = http://dominio.com/festa.jpg&lt;/p&gt;" style="verticalAlign=top;align=left;overflow=fill;fontSize=12;fontFamily=Helvetica;html=1;" parent="1" vertex="1">
      <mxGeometry x="30" y="350" width="220" height="150" as="geometry" />
    </mxCell>
    <mxCell id="4" value="&lt;p style=&quot;margin: 0px ; margin-top: 4px ; text-align: center ; text-decoration: underline&quot;&gt;&lt;b&gt;u3 : Usuario&lt;/b&gt;&lt;/p&gt;&lt;hr&gt;&lt;p style=&quot;margin: 0px ; margin-left: 8px&quot;&gt;id = 3&lt;br&gt;mome = Carlos Alves&lt;br&gt;email = carlos@yahoo.com&lt;/p&gt;&lt;p style=&quot;margin: 0px ; margin-left: 8px&quot;&gt;nascimento = null&lt;/p&gt;&lt;p style=&quot;margin: 0px ; margin-left: 8px&quot;&gt;website = null&lt;/p&gt;&lt;p style=&quot;margin: 0px ; margin-left: 8px&quot;&gt;genero = M&lt;/p&gt;&lt;p style=&quot;margin: 0px ; margin-left: 8px&quot;&gt;telefone = 99777-8383&lt;/p&gt;&lt;p style=&quot;margin: 0px ; margin-left: 8px&quot;&gt;uriFoto = http://dominio.com/carlos.jpg&lt;/p&gt;" style="verticalAlign=top;align=left;overflow=fill;fontSize=12;fontFamily=Helvetica;html=1;" parent="1" vertex="1">
      <mxGeometry x="330" y="60" width="220" height="150" as="geometry" />
    </mxCell>
    <mxCell id="12" style="edgeStyle=none;html=1;entryX=0.5;entryY=1;entryDx=0;entryDy=0;endArrow=none;endFill=0;" parent="1" source="5" target="4" edge="1">
      <mxGeometry relative="1" as="geometry" />
    </mxCell>
    <mxCell id="13" value="seguidor" style="edgeLabel;html=1;align=center;verticalAlign=middle;resizable=0;points=[];" parent="12" vertex="1" connectable="0">
      <mxGeometry x="-0.7429" relative="1" as="geometry">
        <mxPoint x="-30" y="-112" as="offset" />
      </mxGeometry>
    </mxCell>
    <mxCell id="16" style="edgeStyle=none;html=1;entryX=0;entryY=0.625;entryDx=0;entryDy=0;entryPerimeter=0;endArrow=none;endFill=0;" parent="1" source="5" target="14" edge="1">
      <mxGeometry relative="1" as="geometry" />
    </mxCell>
    <mxCell id="17" style="edgeStyle=none;html=1;entryX=0;entryY=0.5;entryDx=0;entryDy=0;endArrow=none;endFill=0;" parent="1" source="5" target="15" edge="1">
      <mxGeometry relative="1" as="geometry" />
    </mxCell>
    <mxCell id="5" value="&lt;p style=&quot;margin: 0px ; margin-top: 4px ; text-align: center ; text-decoration: underline&quot;&gt;&lt;b&gt;u4 : Usuario&lt;/b&gt;&lt;/p&gt;&lt;hr&gt;&lt;p style=&quot;margin: 0px ; margin-left: 8px&quot;&gt;id = 4&lt;br&gt;mome = Ana Clara&lt;br&gt;email = clara@gmail.com&lt;/p&gt;&lt;p style=&quot;margin: 0px ; margin-left: 8px&quot;&gt;nascimento = 23/01/1997&lt;/p&gt;&lt;p style=&quot;margin: 0px ; margin-left: 8px&quot;&gt;website = blog.clara.com&lt;/p&gt;&lt;p style=&quot;margin: 0px ; margin-left: 8px&quot;&gt;genero = F&lt;/p&gt;&lt;p style=&quot;margin: 0px ; margin-left: 8px&quot;&gt;telefone = 88181-2820&lt;/p&gt;&lt;p style=&quot;margin: 0px ; margin-left: 8px&quot;&gt;uriFoto = http://dominio.com/clara.jpg&lt;/p&gt;" style="verticalAlign=top;align=left;overflow=fill;fontSize=12;fontFamily=Helvetica;html=1;" parent="1" vertex="1">
      <mxGeometry x="330" y="350" width="220" height="150" as="geometry" />
    </mxCell>
    <mxCell id="14" value="&lt;p style=&quot;margin: 0px ; margin-top: 4px ; text-align: center ; text-decoration: underline&quot;&gt;&lt;b&gt;p1 : postagem&lt;/b&gt;&lt;/p&gt;&lt;hr&gt;&lt;p style=&quot;margin: 0px ; margin-left: 8px&quot;&gt;id = 1&lt;br&gt;testo = #partiu festa&lt;br&gt;instante = 09/08/2017 19:34:20&lt;/p&gt;" style="verticalAlign=top;align=left;overflow=fill;fontSize=12;fontFamily=Helvetica;html=1;" parent="1" vertex="1">
      <mxGeometry x="630" y="340" width="180" height="80" as="geometry" />
    </mxCell>
    <mxCell id="15" value="&lt;p style=&quot;margin: 0px ; margin-top: 4px ; text-align: center ; text-decoration: underline&quot;&gt;&lt;b&gt;p2 : postagem&lt;/b&gt;&lt;/p&gt;&lt;hr&gt;&lt;p style=&quot;margin: 0px ; margin-left: 8px&quot;&gt;id = 2&lt;br&gt;testo = bom dia pessoal&lt;br&gt;instante = 10/08/2017 07:50:00&lt;/p&gt;" style="verticalAlign=top;align=left;overflow=fill;fontSize=12;fontFamily=Helvetica;html=1;" parent="1" vertex="1">
      <mxGeometry x="630" y="470" width="180" height="80" as="geometry" />
    </mxCell>
    <mxCell id="23" style="edgeStyle=none;html=1;entryX=1;entryY=0.5;entryDx=0;entryDy=0;endArrow=none;endFill=0;" parent="1" source="18" target="4" edge="1">
      <mxGeometry relative="1" as="geometry" />
    </mxCell>
    <mxCell id="18" value="&lt;p style=&quot;margin: 0px ; margin-top: 4px ; text-align: center ; text-decoration: underline&quot;&gt;&lt;b&gt;a1 : Album&lt;/b&gt;&lt;/p&gt;&lt;hr&gt;&lt;p style=&quot;margin: 0px ; margin-left: 8px&quot;&gt;id = 1&lt;br&gt;titulo = Férias de verão&lt;br&gt;instanteDePostagem = 13/01/2017 13:50:17&lt;/p&gt;" style="verticalAlign=top;align=left;overflow=fill;fontSize=12;fontFamily=Helvetica;html=1;" parent="1" vertex="1">
      <mxGeometry x="595" y="220" width="250" height="90" as="geometry" />
    </mxCell>
    <mxCell id="21" style="edgeStyle=none;html=1;entryX=0.5;entryY=0;entryDx=0;entryDy=0;endArrow=none;endFill=0;" parent="1" source="19" target="18" edge="1">
      <mxGeometry relative="1" as="geometry" />
    </mxCell>
    <mxCell id="24" style="edgeStyle=none;html=1;entryX=1;entryY=0.5;entryDx=0;entryDy=0;endArrow=none;endFill=0;" parent="1" source="19" target="4" edge="1">
      <mxGeometry relative="1" as="geometry" />
    </mxCell>
    <mxCell id="19" value="&lt;p style=&quot;margin: 0px ; margin-top: 4px ; text-align: center ; text-decoration: underline&quot;&gt;&lt;b&gt;f1 : Foto&lt;/b&gt;&lt;/p&gt;&lt;hr&gt;&lt;p style=&quot;margin: 0px ; margin-left: 8px&quot;&gt;uri = http://dominio.com/praia1.jpg&lt;br&gt;instanteDePostagem = 10/01/2017 10:30:14&lt;br&gt;&lt;/p&gt;" style="verticalAlign=top;align=left;overflow=fill;fontSize=12;fontFamily=Helvetica;html=1;" parent="1" vertex="1">
      <mxGeometry x="570" y="40" width="250" height="70" as="geometry" />
    </mxCell>
    <mxCell id="22" style="edgeStyle=none;html=1;entryX=0.5;entryY=0;entryDx=0;entryDy=0;endArrow=none;endFill=0;" parent="1" source="20" target="18" edge="1">
      <mxGeometry relative="1" as="geometry" />
    </mxCell>
    <mxCell id="25" style="edgeStyle=none;html=1;entryX=1;entryY=0.5;entryDx=0;entryDy=0;endArrow=none;endFill=0;" parent="1" source="20" target="4" edge="1">
      <mxGeometry relative="1" as="geometry" />
    </mxCell>
    <mxCell id="20" value="&lt;p style=&quot;margin: 0px ; margin-top: 4px ; text-align: center ; text-decoration: underline&quot;&gt;&lt;b&gt;f2 : Foto&lt;/b&gt;&lt;/p&gt;&lt;hr&gt;&lt;p style=&quot;margin: 0px ; margin-left: 8px&quot;&gt;uri = http://dominio.com/praia2.jpg&lt;br&gt;instanteDePostagem = 10/01/2017 10:31:12&lt;br&gt;&lt;/p&gt;" style="verticalAlign=top;align=left;overflow=fill;fontSize=12;fontFamily=Helvetica;html=1;" parent="1" vertex="1">
      <mxGeometry x="740" y="120" width="250" height="70" as="geometry" />
    </mxCell>
  </root>
</mxGraphModel>